<svg xmlns="http://www.w3.org/2000/svg" xmlns:xlink="http://www.w3.org/1999/xlink" width="500" zoomAndPan="magnify" viewBox="0 0 375 374.999991" height="500" preserveAspectRatio="xMidYMid meet" version="1.0"><defs><clipPath id="9de5e4998b"><path d="M 33.90625 42 L 341.40625 42 L 341.40625 333 L 33.90625 333 Z M 33.90625 42 " clip-rule="nonzero"/></clipPath></defs><g clip-path="url(#9de5e4998b)"><path fill="#ffffff" d="M 35.96875 330.308594 L 154.917969 203.871094 L 33.90625 42.574219 C 64.398438 42.574219 91.417969 42 118.378906 43.101562 C 123.175781 43.296875 128.550781 49.816406 132.183594 54.535156 C 156.230469 85.792969 179.863281 117.359375 204.945312 150.554688 C 235.621094 118.09375 265.363281 86.601562 295.121094 55.136719 C 308.300781 41.214844 308.324219 41.238281 330.484375 44.375 L 216.601562 166.226562 L 341.40625 332.144531 C 310.484375 332.144531 283.046875 332.539062 255.660156 331.703125 C 251.792969 331.582031 247.449219 325.945312 244.457031 322.011719 C 218.796875 288.324219 193.398438 254.457031 166.589844 218.882812 C 133.738281 253.707031 101.984375 287.394531 70.191406 321.054688 C 58.191406 333.761719 58.15625 333.738281 35.96875 330.308594 Z M 74.941406 63.640625 C 78.757812 69.335938 81.628906 74.128906 84.976562 78.578125 C 138.851562 150.148438 192.773438 221.695312 246.738281 293.214844 C 263.722656 315.761719 271.660156 318.324219 301.855469 310.519531 C 298.726562 306.046875 295.90625 301.757812 292.828125 297.652344 C 239.265625 226.578125 184.539062 156.328125 132.757812 83.96875 C 116.867188 61.777344 99.445312 59.546875 74.941406 63.640625 Z M 74.941406 63.640625 " fill-opacity="1" fill-rule="nonzero"/></g></svg>