<svg xmlns="http://www.w3.org/2000/svg" xmlns:xlink="http://www.w3.org/1999/xlink" width="500" zoomAndPan="magnify" viewBox="0 0 375 374.999991" height="500" preserveAspectRatio="xMidYMid meet" version="1.0"><defs><clipPath id="e70b4fb8a9"><path d="M 5.90625 18.871094 L 368.90625 18.871094 L 368.90625 357.121094 L 5.90625 357.121094 Z M 5.90625 18.871094 " clip-rule="nonzero"/></clipPath></defs><path fill="#ffffff" d="M 126.601562 332.882812 C 191.726562 332.882812 225.8125 296.957031 225.8125 261.453125 C 225.824219 235.207031 210.433594 222.242188 194.097656 208.472656 L 180.3125 197.757812 C 176.046875 194.222656 170.742188 189.835938 170.742188 181.695312 C 170.742188 173.699219 176.046875 168.425781 180.722656 163.761719 L 181.222656 163.265625 C 196.097656 151.542969 212.980469 138.242188 212.980469 109.492188 C 212.980469 80.585938 194.917969 65.644531 186.21875 58.46875 L 209.164062 58.46875 C 209.441406 58.46875 209.722656 58.378906 209.953125 58.234375 L 229.714844 45.8125 C 230.269531 45.460938 230.546875 44.773438 230.355469 44.128906 C 230.167969 43.492188 229.582031 43.050781 228.925781 43.050781 L 159.792969 43.050781 C 128.996094 43.050781 107.671875 49.804688 88.480469 65.660156 C 73.398438 78.683594 64.378906 97.597656 64.378906 116.277344 C 64.378906 145.054688 86.316406 175.644531 126.976562 175.644531 C 130.894531 175.644531 135.226562 175.238281 139.039062 174.886719 L 138.484375 176.242188 C 136.84375 180.160156 135.296875 183.859375 135.296875 189.617188 C 135.296875 200.84375 140.703125 207.769531 145.953125 214.464844 L 146.609375 215.3125 L 145.441406 215.402344 C 128.648438 216.542969 97.398438 218.6875 74.570312 232.722656 C 47.601562 248.753906 45.511719 272.066406 45.511719 278.816406 C 45.511719 305.730469 70.574219 332.882812 126.601562 332.882812 Z M 144.722656 165.050781 C 111.398438 165.050781 97.570312 121.246094 97.570312 97.785156 C 97.570312 85.863281 100.277344 76.710938 105.859375 69.800781 C 111.910156 62.226562 122.289062 57.332031 132.28125 57.332031 C 162.875 57.332031 179.785156 98.460938 179.785156 126.875 C 179.785156 131.359375 179.785156 144.996094 170.371094 154.46875 C 164.03125 160.796875 153.726562 165.050781 144.722656 165.050781 Z M 111.121094 231.988281 C 128.324219 226.203125 150.539062 225.910156 150.761719 225.910156 C 154.515625 225.910156 156.417969 225.910156 159.410156 226.289062 C 187.195312 246.066406 200.558594 256.445312 200.558594 276.21875 C 200.558594 301.398438 179.304688 317.039062 145.085938 317.039062 C 105.390625 317.039062 78.71875 298.507812 78.71875 270.898438 C 78.71875 252.878906 89.621094 239.78125 111.121094 231.988281 Z M 111.121094 231.988281 " fill-opacity="1" fill-rule="nonzero"/><path fill="#ffffff" d="M 234.480469 197.292969 L 270.714844 197.292969 L 270.714844 233.820312 C 270.714844 234.636719 271.382812 235.308594 272.203125 235.308594 L 287.867188 235.308594 C 288.703125 235.308594 289.378906 234.636719 289.378906 233.820312 L 289.378906 197.292969 L 325.796875 197.292969 C 326.617188 197.292969 327.292969 196.617188 327.292969 195.789062 L 327.292969 179.917969 C 327.292969 179.082031 326.632812 178.421875 325.796875 178.421875 L 289.378906 178.421875 L 289.378906 142.117188 C 289.378906 141.296875 288.703125 140.628906 287.867188 140.628906 L 272.203125 140.628906 C 271.382812 140.628906 270.714844 141.296875 270.714844 142.117188 L 270.714844 178.421875 L 234.480469 178.421875 C 233.644531 178.421875 232.976562 179.097656 232.976562 179.917969 L 232.976562 195.789062 C 232.976562 196.617188 233.644531 197.292969 234.480469 197.292969 Z M 234.480469 197.292969 " fill-opacity="1" fill-rule="nonzero"/><g clip-path="url(#e70b4fb8a9)"><path fill="#ffffff" d="M -36.722656 -35.160156 L -36.722656 411.089844 L 409.527344 411.089844 L 409.527344 -35.160156 Z M 381.921875 383.488281 L -9.121094 383.488281 L -9.121094 -7.554688 L 381.921875 -7.554688 Z M 381.921875 383.488281 " fill-opacity="1" fill-rule="nonzero"/></g></svg>