<svg xmlns="http://www.w3.org/2000/svg" height="24" viewBox="0 -960 960 960" width="24"><path d="M341.537-140.001H212.309q-30.308 0-51.308-21t-21-51.308V-480q0-70.769 26.77-132.615 26.769-61.846 72.768-107.846 46-45.999 107.846-72.768 61.846-26.77 132.615-26.77t132.615 26.77q61.846 26.769 107.846 72.768 45.999 46 72.768 107.846 26.77 61.846 26.77 132.615v267.691q0 30.308-21 51.308t-51.308 21H618.463v-283.075H760V-480q0-117-81.5-198.5T480-760q-117 0-198.5 81.5T200-480v56.924h141.537v283.075Zm-59.998-223.076H200v150.768q0 4.616 3.846 8.463 3.847 3.846 8.463 3.846h69.23v-163.077Zm396.922 0V-200h69.23q4.616 0 8.463-3.846 3.846-3.847 3.846-8.463v-150.768h-81.539Zm-396.922 0H200h81.539Zm396.922 0H760h-81.539Z"/></svg>