<svg xmlns="http://www.w3.org/2000/svg" height="24" viewBox="0 -960 960 960" width="24"><path d="M480.136-490.769q26.71 0 45.595-19.021 18.884-19.021 18.884-45.731t-19.02-45.594Q506.574-620 479.864-620t-45.595 19.021q-18.884 19.02-18.884 45.731 0 26.71 19.02 45.594 19.021 18.885 45.731 18.885ZM480-172.923q112.769-98.154 178.308-199.654 65.538-101.5 65.538-175.577 0-109.769-69.5-181.192T480-800.769q-104.846 0-174.346 71.423t-69.5 181.192q0 74.077 65.538 175.577Q367.231-271.077 480-172.923Zm0 53.692Q339-243.923 267.577-351.808q-71.423-107.884-71.423-196.346 0-126.923 82.654-209.385Q361.461-840 480-840t201.192 82.461q82.654 82.462 82.654 209.385 0 88.462-71.423 196.346Q621-243.923 480-119.231Zm0-436.154Z"/></svg>